<?xml version='1.0' encoding='utf-8'?>
<!-- Generator: Adobe Illustrator 13.0.0, SVG Export Plug-In . SVG Version: 6.00 Build 14948)  -->
<svg xmlns="http://www.w3.org/2000/svg" height="0.444444in" y="0px" viewBox="0 0 32 32" x="0px" version="1.2"  baseProfile="tiny" gorn="0" id="svg2" xml:space="preserve" width="0.444444in" xmlns:xml="http://www.w3.org/XML/1998/namespace">
    <desc>
        <referenceFile>voltage_regulator_vreg_icon.svg</referenceFile>
    </desc>
    <g  gorn="0.0" id="icon">
        <path fill="#BFBCBC" d="M28.146,1.298H15.999v2.026c3.526,0,6.379,2.002,6.379,4.469c-0.002,2.465-2.854,4.465-6.379,4.465v6.551h12.147V1.298z" />
        <path fill="#808080" d="M9.622,7.789c0-2.469,2.854-4.467,6.377-4.467V1.296H3.851v17.505h12.148v-6.549C12.476,12.254,9.622,10.256,9.622,7.789z" />
        <rect fill="#8C8C8C" height="24.938" y="38.583" x="6.686"  gorn="0.0.2" id="rect4" width="2.431"/>
        <rect fill="#8C8C8C" height="24.938" y="38.583" x="14.784"  gorn="0.0.3" id="rect6" width="2.43"/>
        <rect fill="#8C8C8C" height="24.938" y="38.583" x="22.883"  gorn="0.0.4" id="rect8" width="2.43"/>
        <polygon fill="#CCCCCC" points="1.016,4.559 1.016,15.364 3.851,15.364 3.851,1.298 "  gorn="0.0.5" id="polygon10"/>
        <polygon fill="#999999" points="30.982,4.559 28.146,1.298 28.146,15.364 30.982,15.364 "  gorn="0.0.6" id="polygon12"/>
        <polygon fill="#8C8C8C" points="10.735,46.8 8.922,47.607 6.88,47.607 5.064,46.8 5.064,36.934 10.735,36.934 "  gorn="0.0.7" id="polygon21"/>
        <polygon fill="#8C8C8C" points="18.835,46.8 17.02,47.607 14.979,47.607 13.164,46.8 13.164,36.934 18.835,36.934 "  gorn="0.0.8" id="polygon23"/>
        <polygon fill="#8C8C8C" points="26.934,46.8 25.118,47.607 23.079,47.607 21.264,46.8 21.264,36.934 26.934,36.934 "  gorn="0.0.9" id="polygon25"/>
        <rect fill="#141414" height="17.999" y="26.427" x="21.264"  width="9.721"/>
        <rect fill="#333333" height="17.999" y="26.427" x="1.016"  width="9.72"/>
        <path fill="#262626" d="M1.016,33.016v5.812c2.292,0,4.151-1.299,4.151-2.906C5.167,34.318,3.308,33.016,1.016,33.016z"  gorn="0.0.12" id="path40_1_"/>
        <path d="M30.982,33.016c-2.293,0-4.151,1.301-4.151,2.906c0,1.604,1.858,2.906,4.151,2.906V33.016z"  gorn="0.0.13" id="path47"/>
        <path fill="#1A1A1A" d="M1.016,26.427v8.009c2.292,0,4.151,1.303,4.151,2.906s-1.859,2.905-4.151,2.905v4.179h29.969V26.427H1.016z M30.982,40.247c-2.293,0-4.151-1.299-4.151-2.907c0-1.604,1.858-2.904,4.151-2.904V40.247z" />
        <rect height="3.766" y="22.659" x="1.016"  gorn="0.0.15" id="rect49" width="29.969"/>
        <rect fill="#333333" height="4.656" y="18.003" x="1.016"  gorn="0.0.16" id="rect51" width="29.969"/>
        <rect fill="#B2B2B2" height="3.442" y="1.298" x="3.851"  gorn="0.0.17" id="rect53" width="24.3"/>
        <path fill="#8C8C8C" d="M28.146,3.938H3.851l-2.835,3.26v10.806h29.967V7.197L28.146,3.938z M15.999,14.895c-3.523,0-6.377-2-6.377-4.465c0-2.466,2.854-4.465,6.377-4.465c3.526,0,6.379,2,6.379,4.465C22.376,12.895,19.523,14.895,15.999,14.895z"  gorn="0.0.18" id="path55"/>
        <g  gorn="0.0.19" id="g47">
            <path fill="#663300" d="M9.924,28.259v1.216H9.316v1.215H8.709v0.607H7.494v-0.607H6.887v-1.215H6.278v-1.216h1.215v1.216h1.215v-1.216H9.924z"  gorn="0.0.19.0" id="path49"/>
            <path fill="#663300" d="M15.999,28.867h0.606v1.215h-0.606v0.607h0.606v0.606h-1.821v-0.606h-0.607v0.606h-1.215v-3.038H16L15.999,28.867L15.999,28.867z M15.393,28.867h-1.216v1.215h1.216V28.867z"  gorn="0.0.19.1" id="path51"/>
            <path fill="#663300" d="M20.859,28.259v0.608h-2.432v0.607h1.822v0.606h-1.822v0.606h2.432v0.607h-3.646v-3.038h3.646V28.259z"  gorn="0.0.19.2" id="path53"/>
            <path fill="#663300" d="M22.074,30.689h-0.607v-1.822h0.607v-0.608h3.037v0.608H22.68v1.822h1.217v-0.607h-0.608v-0.607h1.823v1.822h-3.037V30.689z"  gorn="0.0.19.3" id="path56"/>
        </g>
    </g>
</svg>
